<?xml version="1.0" encoding="UTF-8" standalone="no"?>
<!DOCTYPE svg
    PUBLIC "-//W3C//DTD SVG 1.1//EN" "http://www.w3.org/Graphics/SVG/1.1/DTD/svg11.dtd">
<svg width="100%" height="100%" viewBox="0 0 54 54" version="1.1"
    xmlns="http://www.w3.org/2000/svg"
    xmlns:xlink="http://www.w3.org/1999/xlink" xml:space="preserve"
    xmlns:serif="http://www.serif.com/"
    style="fill-rule:evenodd;clip-rule:evenodd;">
    <g transform="matrix(1,0,0,1,-452.084,-56.0648)">
        <g transform="matrix(1,0,0,1,-40,-422.037)">
            <g transform="matrix(1,0,0,1,97,179)">
                <g id="rect5821" transform="matrix(1,0,0,1,-755.572,-44.1463)">
                    <path
                        d="M1203.08,348.946C1203.08,346.313 1200.94,344.175 1198.31,344.175L1156.36,344.175C1153.72,344.175 1151.58,346.313 1151.58,348.946L1151.58,391.449C1151.58,394.082 1153.72,396.219 1156.36,396.219L1198.31,396.219C1200.94,396.219 1203.08,394.082 1203.08,391.449L1203.08,348.946Z"
                        style="fill:rgb(101,101,101);" />
                </g>
                <g id="rect5823" transform="matrix(1,0,0,1,-755.572,-44.1463)">
                    <rect x="1191.78" y="348.04" width="11.279" height="34.564"
                        style="fill:rgb(214,214,214);" />
                </g>
                <g id="path5825" transform="matrix(1,0,0,1,-755.572,-44.1463)">
                    <path
                        d="M1193.94,351.055L1203.03,348.084C1202.67,345.227 1200.7,344.238 1197.96,344.146C1194.32,344.252 1190.76,344.406 1188.87,345.483L1193.94,351.055Z"
                        style="fill:url(#_Linear1);" />
                </g>
                <g id="rect5828" transform="matrix(1,0,0,1,-755.572,-44.1463)">
                    <rect x="1160.68" y="383.234" width="33.469" height="12.975"
                        style="fill:rgb(146,146,146);" />
                </g>
                <g id="path5830" transform="matrix(1,0,0,1,-755.572,-44.1463)">
                    <path
                        d="M1192.24,380.187L1203.04,381.343L1203.08,391.849C1203.08,394.558 1200.91,396.115 1198.68,396.209L1193.87,396.156L1188.55,383.812L1192.24,380.187Z"
                        style="fill:url(#_Linear2);" />
                </g>
                <g id="path5832" transform="matrix(1,0,0,1,-755.572,-44.1463)">
                    <path
                        d="M1159.1,380.082L1151.61,381.343L1151.57,391.849C1151.58,394.558 1153.74,396.115 1155.97,396.209L1160.78,396.156L1162.47,383.864L1159.1,380.082Z"
                        style="fill:url(#_Linear3);" />
                </g>
                <g id="rect5834" transform="matrix(1,0,0,1,-755.572,-44.1463)">
                    <path
                        d="M1194.89,349.603C1194.89,346.971 1192.75,344.833 1190.12,344.833L1163.12,344.833C1160.49,344.833 1158.36,346.971 1158.36,349.603L1158.36,380.308C1158.36,382.941 1160.49,385.078 1163.12,385.078L1190.12,385.078C1192.75,385.078 1194.89,382.941 1194.89,380.308L1194.89,349.603Z"
                        style="fill:rgb(241,241,241);" />
                </g>
                <g id="rect5836" transform="matrix(1,0,0,1,-755.572,-44.1463)">
                    <path
                        d="M1193.84,349.603C1193.84,346.971 1191.7,344.833 1189.07,344.833L1163.12,344.833C1160.49,344.833 1158.36,346.971 1158.36,349.603L1158.36,380.308C1158.36,382.941 1160.49,385.078 1163.12,385.078L1189.07,385.078C1191.7,385.078 1193.84,382.941 1193.84,380.308L1193.84,349.603Z"
                        style="fill:url(#_Linear4);" />
                </g>
                <g id="rect5844" transform="matrix(1,0,0,1,-755.572,-44.1463)">
                    <path
                        d="M1203.08,348.946C1203.08,346.313 1200.94,344.175 1198.31,344.175L1156.36,344.175C1153.72,344.175 1151.58,346.313 1151.58,348.946L1151.58,391.449C1151.58,394.082 1153.72,396.219 1156.36,396.219L1198.31,396.219C1200.94,396.219 1203.08,394.082 1203.08,391.449L1203.08,348.946Z"
                        style="fill:rgb(0,254,251);fill-opacity:0.14;stroke:black;stroke-width:0.45px;" />
                </g>
            </g>
            <g transform="matrix(0.171403,0,0,0.171403,420.802,406.48)">
                <path
                    d="M621,594L596.25,544.5L571.5,594L546.75,544.5L522,594L522,495L546.75,495L571.5,544.5L596.25,495L621,495L621,594Z" />
            </g>
        </g>
    </g>
    <defs>
        <linearGradient id="_Linear1" x1="0" y1="0" x2="1" y2="0"
            gradientUnits="userSpaceOnUse"
            gradientTransform="matrix(-0.632479,-2.62642,2.62642,-0.632479,1195.32,348.231)">
            <stop offset="0"
                style="stop-color:rgb(214,214,214);stop-opacity:1" />
            <stop offset="1"
                style="stop-color:rgb(101,101,101);stop-opacity:1" />
        </linearGradient>
        <linearGradient id="_Linear2" x1="0" y1="0" x2="1" y2="0"
            gradientUnits="userSpaceOnUse"
            gradientTransform="matrix(-4.18372,3.25677,-3.25677,-4.18372,1199.09,387.436)">
            <stop offset="0"
                style="stop-color:rgb(214,214,214);stop-opacity:1" />
            <stop offset="1"
                style="stop-color:rgb(147,147,147);stop-opacity:1" />
        </linearGradient>
        <linearGradient id="_Linear3" x1="0" y1="0" x2="1" y2="0"
            gradientUnits="userSpaceOnUse"
            gradientTransform="matrix(4.78004,3.25677,-3.25677,4.78004,1154.37,386.99)">
            <stop offset="0"
                style="stop-color:rgb(101,101,101);stop-opacity:1" />
            <stop offset="1"
                style="stop-color:rgb(147,147,147);stop-opacity:1" />
        </linearGradient>
        <linearGradient id="_Linear4" x1="0" y1="0" x2="1" y2="0"
            gradientUnits="userSpaceOnUse"
            gradientTransform="matrix(15.976,0,0,15.976,1169.16,364.956)">
            <stop offset="0"
                style="stop-color:rgb(216,216,216);stop-opacity:1" />
            <stop offset="1"
                style="stop-color:rgb(177,177,177);stop-opacity:1" />
        </linearGradient>
    </defs>
</svg>