<?xml version="1.0" encoding="UTF-8" standalone="no"?>
<!DOCTYPE svg
    PUBLIC "-//W3C//DTD SVG 1.1//EN" "http://www.w3.org/Graphics/SVG/1.1/DTD/svg11.dtd">
<svg width="100%" height="100%" viewBox="0 0 288 288" version="1.1"
    xmlns="http://www.w3.org/2000/svg"
    xmlns:xlink="http://www.w3.org/1999/xlink" xml:space="preserve"
    xmlns:serif="http://www.serif.com/"
    style="fill-rule:evenodd;clip-rule:evenodd;">
    <g transform="matrix(5.55556,0,0,5.55556,-1961.75,-311.642)">
        <g transform="matrix(0.970714,0,0,0.960188,-62.4361,-402.966)">
            <g transform="matrix(1,0,0,1,33,179)">
                <g id="rect5821" transform="matrix(1,0,0,1,-755.572,-44.1463)">
                    <path
                        d="M1203.08,349.144C1203.08,346.402 1200.88,344.175 1198.16,344.175L1156.5,344.175C1153.79,344.175 1151.58,346.402 1151.58,349.144L1151.58,391.251C1151.58,393.993 1153.79,396.219 1156.5,396.219L1198.16,396.219C1200.88,396.219 1203.08,393.993 1203.08,391.251L1203.08,349.144Z"
                        style="fill:rgb(101,101,101);" />
                </g>
                <g id="rect5823" transform="matrix(1,0,0,1,-755.572,-44.1463)">
                    <rect x="1191.78" y="348.04" width="11.279" height="34.564"
                        style="fill:rgb(214,214,214);" />
                </g>
                <g id="path5825" transform="matrix(1,0,0,1,-755.572,-44.1463)">
                    <clipPath id="_clip1">
                        <path
                            d="M1193.94,351.055L1203.03,348.084C1202.67,345.227 1200.7,344.238 1197.96,344.146C1194.32,344.252 1190.76,344.406 1188.87,345.483L1193.94,351.055Z" />
                    </clipPath>
                    <g clip-path="url(#_clip1)">
                        <g
                            transform="matrix(0.185431,-0,-0,0.187463,1150.66,343.243)">
                            <use xlink:href="#_Image2" x="207.718" y="4.84"
                                width="76.377px" height="36.853px"
                                transform="matrix(0.991907,0,0,0.996038,0,0)" />
                        </g>
                    </g>
                </g>
                <g id="rect5828" transform="matrix(1,0,0,1,-755.572,-44.1463)">
                    <rect x="1160.68" y="383.234" width="33.469" height="12.975"
                        style="fill:rgb(146,146,146);" />
                </g>
                <g id="path5830" transform="matrix(1,0,0,1,-755.572,-44.1463)">
                    <clipPath id="_clip3">
                        <path
                            d="M1192.24,380.187L1203.04,381.343L1203.08,391.849C1203.08,394.558 1200.91,396.115 1198.68,396.209L1193.87,396.156L1188.55,383.812L1192.24,380.187Z" />
                    </clipPath>
                    <g clip-path="url(#_clip3)">
                        <g
                            transform="matrix(0.185431,-0,-0,0.187463,1150.66,343.243)">
                            <use xlink:href="#_Image4" x="205.925" y="198.316"
                                width="78.38px" height="85.463px"
                                transform="matrix(0.992155,0,0,0.993758,0,0)" />
                        </g>
                    </g>
                </g>
                <g id="path5832" transform="matrix(1,0,0,1,-755.572,-44.1463)">
                    <clipPath id="_clip5">
                        <path
                            d="M1159.1,380.082L1151.61,381.343L1151.57,391.849C1151.58,394.558 1153.74,396.115 1155.97,396.209L1160.78,396.156L1162.47,383.864L1159.1,380.082Z" />
                    </clipPath>
                    <g clip-path="url(#_clip5)">
                        <g
                            transform="matrix(0.185431,-0,-0,0.187463,1150.66,343.243)">
                            <use xlink:href="#_Image6" x="4.931" y="198.748"
                                width="58.768px" height="86.024px"
                                transform="matrix(0.99606,0,0,0.988777,0,0)" />
                        </g>
                    </g>
                </g>
                <g id="rect5834" transform="matrix(1,0,0,1,-755.572,-44.1463)">
                    <path
                        d="M1194.89,349.801C1194.89,347.059 1192.69,344.833 1189.98,344.833L1163.27,344.833C1160.56,344.833 1158.36,347.059 1158.36,349.801L1158.36,380.11C1158.36,382.852 1160.56,385.078 1163.27,385.078L1189.98,385.078C1192.69,385.078 1194.89,382.852 1194.89,380.11L1194.89,349.801Z"
                        style="fill:rgb(241,241,241);" />
                </g>
                <g id="rect5836" transform="matrix(1,0,0,1,-755.572,-44.1463)">
                    <path
                        d="M1193.84,349.801C1193.84,347.059 1191.63,344.833 1188.92,344.833L1163.27,344.833C1160.56,344.833 1158.36,347.059 1158.36,349.801L1158.36,380.11C1158.36,382.852 1160.56,385.078 1163.27,385.078L1188.92,385.078C1191.63,385.078 1193.84,382.852 1193.84,380.11L1193.84,349.801Z"
                        style="fill:url(#_Linear40);" />
                </g>
                <g id="rect5844" transform="matrix(1,0,0,1,-755.572,-44.1463)">
                    <path
                        d="M1203.08,349.144C1203.08,346.402 1200.88,344.175 1198.16,344.175L1156.5,344.175C1153.79,344.175 1151.58,346.402 1151.58,349.144L1151.58,391.251C1151.58,393.993 1153.79,396.219 1156.5,396.219L1198.16,396.219C1200.88,396.219 1203.08,393.993 1203.08,391.251L1203.08,349.144Z"
                        style="fill:rgb(0,254,251);fill-opacity:0.14;stroke:black;stroke-width:0.45px;" />
                </g>
                <!-- arrow -->
                <g id="g6485" transform="matrix(1,0,0,1,-585.572,-144.146)">
                    <path id="path6487" d="M994.545,477.489L1003.4,477.489"
                        style="fill:none;stroke:black;stroke-width:1px;" />
                    <g id="path6489"
                        transform="matrix(-0.839399,0,0,0.839399,1121.73,-460.015)">
                        <path
                            d="M138.454,1116.88L144.231,1113.54L144.231,1120.21L138.454,1116.88Z" />
                    </g>
                </g>
            </g>
            <!-- m-logo -->
            <g transform="matrix(0.103192,0,0,0.103192,388.107,434.92)">
                <path
                    d="M621,594L596.25,544.5L571.5,594L546.75,544.5L522,594L522,495L546.75,495L571.5,544.5L596.25,495L621,495L621,594Z" />
            </g>
            <g transform="matrix(0.171403,0,0,0.171403,420.802,406.48)">
                <path
                    d="M621,594L596.25,544.5L571.5,594L546.75,544.5L522,594L522,495L546.75,495L571.5,544.5L596.25,495L621,495L621,594Z" />
            </g>
        </g>
    </g>

    <defs>
        <linearGradient id="_Linear10" x1="0" y1="0" x2="1" y2="0"
            gradientUnits="userSpaceOnUse"
            gradientTransform="matrix(-0.632479,-2.62642,2.62642,-0.632479,1195.32,348.231)">
            <stop offset="0"
                style="stop-color:rgb(214,214,214);stop-opacity:1" />
            <stop offset="1"
                style="stop-color:rgb(101,101,101);stop-opacity:1" />
        </linearGradient>
        <linearGradient id="_Linear20" x1="0" y1="0" x2="1" y2="0"
            gradientUnits="userSpaceOnUse"
            gradientTransform="matrix(-4.18372,3.25677,-3.25677,-4.18372,1199.09,387.436)">
            <stop offset="0"
                style="stop-color:rgb(214,214,214);stop-opacity:1" />
            <stop offset="1"
                style="stop-color:rgb(147,147,147);stop-opacity:1" />
        </linearGradient>
        <linearGradient id="_Linear30" x1="0" y1="0" x2="1" y2="0"
            gradientUnits="userSpaceOnUse"
            gradientTransform="matrix(4.78004,3.25677,-3.25677,4.78004,1154.37,386.99)">
            <stop offset="0"
                style="stop-color:rgb(101,101,101);stop-opacity:1" />
            <stop offset="1"
                style="stop-color:rgb(147,147,147);stop-opacity:1" />
        </linearGradient>
        <linearGradient id="_Linear40" x1="0" y1="0" x2="1" y2="0"
            gradientUnits="userSpaceOnUse"
            gradientTransform="matrix(15.976,0,0,15.976,1169.16,364.956)">
            <stop offset="0"
                style="stop-color:rgb(216,216,216);stop-opacity:1" />
            <stop offset="1"
                style="stop-color:rgb(177,177,177);stop-opacity:1" />
        </linearGradient>
    </defs>
</svg>